<?xml version="1.0" encoding="UTF-8" standalone="no"?>
<svg version="1.0" xmlns="http://www.w3.org/2000/svg" width="512.000000pt" height="512.000000pt" viewBox="0 0 512.000000 512.000000" preserveAspectRatio="xMidYMid meet">
<metadata>
Created by potrace 1.14, written by Peter Selinger 2001-2017
</metadata>
<g transform="translate(0.000000,512.000000) scale(0.100000,-0.100000)" fill="#000000" stroke="none">
<path d="M2423 5046 c-40 -13 -103 -39 -142 -59 -183 -93 -1775 -976 -1839 -1020 -139 -95 -190 -175 -211 -331 -15 -107 -15 -2035 0 -2142 17 -122 43 -180 113 -249 34 -33 86 -77 116 -96 79 -52 1825 -1011 1885 -1036 181 -75 293 -69 485 26 114 57 1767 969 1830 1010 30 19 82 63 116 96 70 69 96 127 113 249 15 107 15 2035 0 2142 -21 156 -72 236 -211 331 -69 47 -1687 944 -1848 1024 -164 81 -277 97 -407 55z m182 -916 c46 -10 1335 -717 1373 -752 13 -13 34 -41 45 -63 22 -40 22 -42 22 -750 0 -708 0 -710 -22 -750 -11 -22 -32 -50 -45 -62 -36 -34 -348 -203 -374 -203 -56 0 -54 -21 -54 640 0 335 -3 616 -6 625 -4 9 -18 21 -31 26 -22 8 -64 -12 -316 -151 -161 -89 -305 -173 -321 -188 -16 -15 -37 -45 -47 -67 -17 -38 -19 -78 -19 -663 0 -540 -2 -628 -15 -656 -11 -23 -36 -44 -82 -70 -88 -49 -141 -61 -196 -48 -55 14 -146 64 -177 97 l-25 27 -5 646 c-5 710 -2 673 -67 734 -15 15 -284 168 -598 341 l-570 314 1 59 c2 106 41 158 177 232 94 52 149 66 205 54 23 -6 256 -128 517 -271 261 -144 490 -268 509 -276 45 -19 107 -19 152 0 20 8 135 69 256 136 222 123 244 140 228 183 -4 12 -188 119 -501 292 -271 150 -500 282 -508 293 -26 40 -2 61 179 161 149 82 226 117 265 119 6 0 28 -4 50 -9z m-1272 -1370 c100 -56 193 -112 207 -126 l25 -24 3 -514 c2 -460 1 -516 -13 -530 -9 -9 -27 -16 -39 -16 -26 0 -338 169 -374 203 -13 12 -34 40 -45 62 -22 39 -22 50 -25 526 -3 532 -4 519 54 519 14 0 107 -45 207 -100z"/>
</g>
<style xmlns="" data-source="base" class="dblt-ykjmwcnxmi"/><style xmlns="" data-source="stylesheet-processor" class="dblt-ykjmwcnxmi"/></svg>